# xmcd
#
# Track frame offsets:
#	150
#	15432
#	29113
#	44907
#	63865
#	78024
#
# Disc length: 1243 seconds
#
# Revision: 1
# Processed by: cddbd v1.5.2PL0 Copyright (c) Steve Scherf et al.
# Submitted via: audiograbber 1.83.01
#
DISCID=4504d906
DTITLE=Milk and Honey - Didi (Maxi)
DYEAR=2007
DGENRE=R&B
TTITLE0=Didi (Radio Mix)
TTITLE1=Mon Cherie (Radio Mix)
TTITLE2=Didi (Algiers Club Mix)
TTITLE3=Didi (Tai Jason Mix)
TTITLE4=Didi (M.Million Mix)
TTITLE5=Didi (Instromental)
EXTD=
EXTT0=
EXTT1=
EXTT2=
EXTT3=
EXTT4=
EXTT5=
PLAYORDER=
